<svg width="16" height="16" xmlns="http://www.w3.org/2000/svg"><g fill-rule="nonzero" fill="none"><path d="M0 0h16v16H0z"/><path d="M10.643 1h.856l.123.008c.366.045.69.291.866.658l.053.126 2.06 5.201.165.418.223.562.01.028a3.499 3.499 0 01-.999.47V14a1 1 0 01-1 1H3a1 1 0 01-1-1V8.47A3.5 3.5 0 011 8l.01-.025 2.45-6.183.052-.126c.176-.367.5-.613.866-.658L4.5 1l.852-.002 5.29.001zM13 12H3v2h10v-2zm-1.501-4.002l-.077.053c-.476.303-.963.477-1.46.516l-.212.008c-.57 0-1.128-.178-1.672-.524l-.079-.053-.077.053c-.476.303-.963.477-1.46.516l-.212.008c-.57 0-1.128-.178-1.672-.524L4.5 7.998l-.078.053c-.464.295-.94.468-1.422.513V11h10V8.564c-.483-.045-.958-.218-1.422-.513l-.079-.053zm-.668-5.935l.836 4.748.161.129c.496.397.967.585 1.422.585.166 0 .333-.025.504-.076l-2.081-5.254-.029-.054a.188.188 0 00-.09-.068l-.055-.01h-.668zm-5.666 0h-.664l-.055.01a.188.188 0 00-.09.068l-.029.054-2.08 5.254c.17.051.338.076.503.076.405 0 .822-.149 1.258-.46l.164-.125.154-.125.839-4.752zm2.335 0H6.181l-.913 5.178c.337.192.663.284.982.284.402 0 .817-.147 1.25-.455V2.063zm2.315 0H8.5V7.07c.433.308.848.455 1.25.455.317 0 .642-.091.977-.28l-.912-5.182z" fill="#000"/></g></svg>
